# xmcd
#
# Track frame offsets: 
#        150
#        14935
#        31389
#        48232
#        63540
#        76778
#        90809
#        103919
#        116640
#        131930
#        147773
#        160048
#        174639
#        190252
#        203648
#        218406
#        235982
#
# Disc length: 3340 seconds
#
# Revision: 0
# Processed by: cddbd v1.5.2PL0 Copyright (c) Steve Scherf et al.
# Submitted via: ExactAudioCopyFreeDBPlugin 1.0
#
DISCID=e70d0a11
DTITLE=Patrick Bruel - entre deux
DYEAR=1900
DGENRE=
TTITLE0=Patrick Bruel
TTITLE1=Ménilmontant
TTITLE2=Que reste-t-il de nos amours
TTITLE3=Quand on s'promène au bord de l'eau
TTITLE4=Le temps des cerices
TTITLE5='est ce qu'on attend pour être heureux ?
TTITLE6=A Paris, dans chaque faubourg
TTITLE7=La java bleue
TTITLE8=La complainte de la butte La complainte de la butte 
TTITLE9=Premier rendez-vous
TTITLE10=J'ai ta main 
TTITLE11=Ramona
TTITLE12=Celui qui s'en va
TTITLE13=On n'a pas tous les jours vingt ans
TTITLE14=La romance de Paris
TTITLE15=Parlez moi d'amour
TTITLE16=a contre temps
EXTD=
EXTT0=੕痼ਂamour de Saint Jean
EXTT1=
EXTT2=
EXTT3=
EXTT4=
EXTT5=
EXTT6=
EXTT7=
EXTT8=
EXTT9=
EXTT10=
EXTT11=
EXTT12=
EXTT13=
EXTT14=
EXTT15=
EXTT16=
PLAYORDER=
